/* XPM */
static char * ensemblist_32x32_xpm[] = {
"32 32 81 1",
" 	c None",
".	c #75A09D",
"+	c #708785",
"@	c #7CBFB9",
"#	c #6E8786",
"$	c #68898C",
"%	c #678A8E",
"&	c #528F9C",
"*	c #68B1B8",
"=	c #548F9C",
"-	c #478590",
";	c #43838D",
">	c #47818C",
",	c #548996",
"'	c #7BBEB8",
")	c #628B91",
"!	c #438993",
"~	c #6F8785",
"{	c #7ABDB8",
"]	c #5596A3",
"^	c #43848F",
"/	c #43808B",
"(	c #437D88",
"_	c #437B86",
":	c #79BDB8",
"<	c #568E9D",
"[	c #588E9D",
"}	c #6B8889",
"|	c #53929D",
"1	c #438B94",
"2	c #438590",
"3	c #437C87",
"4	c #437883",
"5	c #437581",
"6	c #437580",
"7	c #65AFB8",
"8	c #467C87",
"9	c #528A9A",
"0	c #67888B",
"a	c #64AEB8",
"b	c #438E98",
"c	c #438892",
"d	c #43737F",
"e	c #43707C",
"f	c #436F7B",
"g	c #46838D",
"h	c #608B93",
"i	c #4E939C",
"j	c #438D96",
"k	c #438791",
"l	c #43818C",
"m	c #436B77",
"n	c #436975",
"o	c #598D9C",
"p	c #43939C",
"q	c #438790",
"r	c #3D636F",
"s	c #518B98",
"t	c #578E9D",
"u	c #49949D",
"v	c #47838D",
"w	c #618B93",
"x	c #439099",
"y	c #63AEB8",
"z	c #5C8C97",
"A	c #6C8786",
"B	c #53959F",
"C	c #438E97",
"D	c #76BBB8",
"E	c #47808B",
"F	c #638B92",
"G	c #5598A5",
"H	c #5F8B95",
"I	c #538E9D",
"J	c #67898D",
"K	c #54939F",
"L	c #478B94",
"M	c #478791",
"N	c #548E9A",
"O	c #6D8787",
"P	c #6A898B",
"                                ",
"                                ",
"                                ",
"                                ",
"         ..................     ",
"      ....................+     ",
"     ....................++     ",
"   .....................+++     ",
"   @@@@@@@@@@@@@@@@@@@@++++     ",
"   @@@@@@@@@@@@@@@@@@@@++++     ",
"   @@@@@@@@@@@@@@@@@@@@#$#+     ",
"   @@@@@@@@@@@@@@@@@@@@%&%+     ",
"   @@@@@@@@@@@@*=-;>,*')!)~     ",
"   @@@@@@@@@@{]!^/(___:<^[}     ",
"   @@@@@@@@@@|12/3456578/90     ",
"   @@@@@@@@@abc;(4defed4(gh     ",
"   @@@@@@@@@ijkl_5emnme5_lo     ",
"   @@@@@@@@@pjq/_6fnrnf6_/s     ",
"   @@@@@@@@@pjkl_5emnme5_lt     ",
"   @@@@@@@@@ubc;(4defed4(vw     ",
"   @@@@@@@@@ax12/34565y3/zA     ",
"   @@@@@@@@@@BC!^/(___DE^F+     ",
"   @@@@@@@@@@{Gj!2;l/l@HIJ+     ",
"   @@@@@@@@@@@@*KLcMN*'OP#+     ",
"   @@@@@@@@@@@@@@@@@@@@+++      ",
"   @@@@@@@@@@@@@@@@@@@@++       ",
"   @@@@@@@@@@@@@@@@@@@@+        ",
"   @@@@@@@@@@@@@@@@@@@@         ",
"                                ",
"                                ",
"                                ",
"                                "};
