/* XPM */
static char * ensemblist_32x32_xpm[] = {
"32 32 16 1",
" 	c None",
".	c #426B77",
"+	c #428C95",
"@	c #4D949F",
"#	c #76A29E",
"$	c #62AEBA",
"%	c #728686",
"&	c #42727E",
"*	c #6E8686",
"=	c #538C9B",
"-	c #427A85",
";	c #43838E",
">	c #66AEBA",
",	c #6AB2BA",
"'	c #638B92",
")	c #7EBEBA",
"                                ",
"                                ",
"                                ",
"                                ",
"         ##################     ",
"      ####################*     ",
"     ####################%%     ",
"   #####################***     ",
"   ))))))))))))))))))))*%%%     ",
"   ))))))))))))))))))))%***     ",
"   ))))))))))))))))))))*'%%     ",
"   ))))))))))))))))))))'='*     ",
"   ))))))))))))$@;;;=$)'+'*     ",
"   )))))))))))@+;;----)=;@*     ",
"   ))))))))))@+;-;-&-&,--='     ",
"   )))))))))$+;;;&&&.&&--;'     ",
"   )))))))))@++--&&...&&-;=     ",
"   )))))))))@+;;--....&---=     ",
"   )))))))))@++;-&&....&;;=     ",
"   )))))))))@+;;--&...&--;'     ",
"   )))))))))$@+;;--&-->--'*     ",
"   ))))))))))@++;;----);+'*     ",
"   )))))))))))@++;;;-;)'='%     ",
"   )))))))))))),==+==>)%'%%     ",
"   ))))))))))))))))))))%%*      ",
"   ))))))))))))))))))))**       ",
"   ))))))))))))))))))))*        ",
"   ))))))))))))))))))))         ",
"                                ",
"                                ",
"                                ",
"                                "};
